<svg xmlns="http://www.w3.org/2000/svg" viewBox="0 0 512 512"><path d="M266.94,477.92s13.07,15.31-28,10.13c-.32,0,20.26,16.92,9.45,22.09-11.21,5.39-7.35-23.16-43-22.09-12.88.38-8.13-10.09-8.13-10.09H213c2.66,0,3.21-1.8,2.66-3.23-1.64-4.31-7.46-20.43-12.17-33.55q7,1.11,14.36,1.93L228,470.73A11.1,11.1,0,0,0,238.2,478C246,478,266.94,477.92,266.94,477.92Zm48.31-14-.05,0a5,5,0,0,1-2.82-.86,4.86,4.86,0,0,1-1.85-2.3C308.65,456,305.09,446,302.59,439c-4.21,1.06-8.63,2-13.12,2.73,2.71,7.49,6.47,17.86,6.78,18.86.75,2.3.21,3.16-3.84,3.16H277.22s-4.4,9.84,12.46,9.84c34.41,0,27.25,28.92,40.49,21.52,8.45-4.73-7.25-18.07-8.51-19.66-.73-.89-.14-2.15,1.72-1.88,35.16,5.37,26.53-9.82,26.53-9.82S325.57,464,315.25,464Zm77.56-235.32c2,23.67,3.09,50,.79,75.17a224.75,224.75,0,0,1-7,39.7q-1.47,5.28-3.21,10.35A123,123,0,0,1,360,395a108.54,108.54,0,0,1-41.86,28.62c-18.71,7.34-41.27,11.07-67.07,11.07a293.3,293.3,0,0,1-37-2.25q-7.32-.93-14.36-2.22a209.18,209.18,0,0,1-50.29-15.76C127.57,404.3,109,390.07,97,374.42,86,360,85.32,350.85,85.72,349.34c.86-3.24,2.78-5.74,18-5.74h8.21c11.31,0,19.93-1.54,26.93-4.83a66.07,66.07,0,0,0,36-30.79c12.22-23.11,7.57-54.25-3-71.83a35.35,35.35,0,0,0-8.72-10.1c.24-9.78.64-20.29,1.36-31.51,3.09-48.15,16.33-84.57,39.33-108.49A99.6,99.6,0,0,1,243.39,61a107.13,107.13,0,0,1,20.08-4.71,116.5,116.5,0,0,1,16-1.14,95.58,95.58,0,0,1,29.08,4.31,86.67,86.67,0,0,1,33.59,20C367,103,383,143.28,389.72,199.11,390.81,208.22,391.91,218.18,392.81,228.64Zm-119.32-70h0a13.93,13.93,0,1,0-10.35,16.76A13.94,13.94,0,0,0,273.49,158.64Zm64.75,39.27a5.28,5.28,0,0,0-1.15-2.69,5,5,0,0,0-2.43-1.53l-30-12.42a8.68,8.68,0,0,0-3.15-.55,8.87,8.87,0,0,0-3.18.55L268.44,193.7a5.09,5.09,0,0,0-3.07,7.16,5.26,5.26,0,0,0,2,2.12l30.39,19.7a6.91,6.91,0,0,0,7.51,0L335.71,203a5.17,5.17,0,0,0,2-2.12v0A5.16,5.16,0,0,0,338.24,197.92Zm14.33-43.15a13.34,13.34,0,1,0-4.33,18.38l0,0A13.33,13.33,0,0,0,352.57,154.77Zm73.74,139.65c-.05-1-.14-2.09-.26-3.09a112,112,0,0,0-1.9-12.08c-.62-3-1.32-5.86-2.22-8.82s-1.83-5.83-2.9-8.63c-.71-1.86-1.47-3.76-2.26-5.49A100,100,0,0,0,411.45,246l-.88-1.45c-.9-1.44-1.79-2.8-2.72-4.11-1.23-1.74-2.49-3.37-3.77-4.87a3.33,3.33,0,0,0-.39-.36h-.11c.35,4.65.66,9.31.9,14,.09,1.73.15,3.45.22,5.18s.05,3.46.19,5.18.14,3.45.14,5.18v10.35H405v7.76c0,1.73-.08,3.45-.15,5.18s-.16,3.45-.24,5.18c-.16,2.59-.33,5.18-.54,7.76-.12,1.73-.28,3.45-.45,5.18s-.34,3.45-.53,5.18c-.33,2.45-.64,4.9-1,7.32-.12.95-.28,1.9-.41,2.85q-1,6.3-2.3,12.49c-.36,1.64-.72,3.28-1.12,4.9a43.46,43.46,0,0,0,4-1.59c1.37-.62,2.7-1.28,4-2a43.17,43.17,0,0,0,5.74-3.84c.56-.51,1.18-.94,1.73-1.51s1.16-1.21,1.73-1.73a19.05,19.05,0,0,0,1.63-1.73,33.52,33.52,0,0,0,2.9-3.91,38.24,38.24,0,0,0,4.85-11.39q.63-2.57,1-5.18a43.11,43.11,0,0,0,.45-5.56C426.4,298.53,426.36,296.54,426.31,294.42Zm-297.24,37a57.64,57.64,0,0,0,5.75-1.81A58.35,58.35,0,0,0,159,313.39a52.77,52.77,0,0,0,6.89-10.11c10.13-19.11,6.57-46.48-2.71-61.91-.11-.17-.23-.34-.33-.53-3.14-5-6.75-8.18-9.53-8.32a1.72,1.72,0,0,0-.43.21C150.59,234,144,240,132.64,257.56a326.64,326.64,0,0,0-25.23,47.5v0c-8.16,19.59-7,25.25-6.67,26.18C104.6,333.48,115.65,334.93,129.07,331.39ZM251.16,49.13c1.71-.4,3.28-.74,5-1.05l.71-.14,2.64-.46,2.59-.38,1.88-.25h.16l1.84-.22h.15l1.85-.19h.35l1.9-.16h.22l2-.13h.16l2.21-.11h15l.91.09h1.59l.71.09h1.62l.74.1h.41l.95.14H297l1.22.13h.39l1.26.22.71.14.5.1.69.14.5.1C306.32,21,285.06,3,274.25,3a5.83,5.83,0,0,0-2.48.36,6,6,0,0,0-2.11,1.37c-5.31,6.1.8,12.21,6.44,18a.34.34,0,0,1,.1.16.67.67,0,0,1,0,.2.47.47,0,0,1-.13.15.3.3,0,0,1-.18.06.43.43,0,0,1-.16,0A35.74,35.74,0,0,0,261.13,19c-3.33,0-5.95,1.22-6.78,4.28-1.72,6.33,6.22,9.85,14,13.47a.38.38,0,0,1,.18.15.3.3,0,0,1,0,.23.3.3,0,0,1-.12.19l0,0a.31.31,0,0,1-.22.09c-7.54.45-16.22,1.33-18.22,12l.36-.09Z"/></svg>